<svg version="1.2" xmlns="http://www.w3.org/2000/svg" viewBox="0 0 600 120" width="600" height="120">
	<style>
		.s0 { fill: #000000 } 
		.s1 { fill: #db8b0c } 
		.s2 { fill: #816d48 } 
	</style>
	<path id="Cats &amp; Coffee" class="s0" aria-label="Cats &amp; Coffee"  d="m35.4 44.8q4.2 0 6.9 1.3 2.8 1.2 4.9 2.9 1.3 0.9 1.9 0.2 0.7-0.8 1-3.5h1.4q-0.1 2.5-0.2 6.1 0 3.5 0 9.4h-1.5q-0.3-3-0.9-5-0.4-2.2-1.4-3.7-0.9-1.6-2.5-2.9-1.6-1.6-3.8-2.4-2-0.8-4.3-0.8-3.5 0-5.9 1.9-2.4 1.8-4 4.9-1.5 3.2-2.2 7.1-0.7 3.9-0.7 8.2 0 4.3 0.7 8.2 0.8 3.9 2.4 7.1 1.6 3 4 4.8 2.5 1.7 5.9 1.7 2.1 0 4.3-0.7 2.2-0.8 3.7-2.4 2.5-1.9 3.3-4.7 0.9-2.9 1.4-7.6h1.5q0 6.1 0 9.8 0.1 3.8 0.2 6.3h-1.4q-0.3-2.8-0.9-3.5-0.6-0.7-2 0.2-2.4 1.7-5.1 3-2.6 1.2-6.8 1.2-6.7 0-11.9-2.8-5-2.7-7.9-7.9-2.8-5.2-2.8-12.5 0-7.1 2.9-12.5 3-5.4 8-8.4 5.2-3 11.8-3zm30 46.6q-2.9 0-4.8-1-1.9-1.1-2.8-2.9-1-1.9-1-4.1 0-2.7 1.3-4.4 1.3-1.8 3.2-2.8 2-1.1 4.2-1.8 2.3-0.7 4.2-1.4 2-0.7 3.3-1.6 1.3-0.9 1.3-2.4v-5q0-1.7-0.6-3-0.5-1.3-1.7-2-1-0.7-2.9-0.7-1.2 0-2.5 0.4-1.3 0.3-2.1 1.1 1.8 0.6 2.7 2 1 1.3 1 3 0 2.2-1.5 3.4-1.4 1.3-3.5 1.3-2.3 0-3.5-1.4-1.2-1.5-1.2-3.5 0-1.9 0.9-3 1-1.3 2.7-2.4 1.7-1 4.2-1.6 2.6-0.6 5.5-0.6 3 0 5.3 0.7 2.4 0.5 4 2.2 1.5 1.4 1.9 3.6 0.5 2.1 0.5 5.3v17.5q0 1.6 0.2 2.2 0.4 0.6 1.2 0.6 0.6 0 1.1-0.3 0.6-0.3 1.2-0.8l0.6 1.1q-1.3 1.1-3.1 1.8-1.7 0.5-3.9 0.5-2.4 0-3.8-0.6-1.4-0.7-2-1.8-0.6-1.2-0.6-2.7-1.5 2.4-3.7 3.8-2.2 1.3-5.3 1.3zm4.5-4q1.3 0 2.3-0.6 1.1-0.7 2.1-2v-13.2q-0.6 1-1.7 1.8-1 0.7-2.2 1.5-1.1 0.8-2.2 1.8-1 0.9-1.6 2.4-0.7 1.3-0.7 3.3 0 2.5 1.1 3.8 1.1 1.2 2.9 1.2zm32.6-40v10.5h7.6v1.3h-7.6v25.8q0 2 0.7 2.8 0.7 0.8 2.1 0.8 1.2 0 2.3-0.9 1.2-0.9 2.1-3l1.1 0.6q-1.1 2.9-3.2 4.8-2 1.8-5.6 1.8-2.1 0-3.8-0.5-1.5-0.6-2.6-1.7-1.4-1.4-1.8-3.4-0.5-2.1-0.5-5.5v-21.6h-5.4v-1.3h5.4v-8.4q2.7-0.1 4.9-0.5 2.3-0.5 4.3-1.6zm22.7 9.6q2.7 0 4.7 0.7 2 0.7 2.9 1.3 2.2 1.5 2.7-1.9h1.4q-0.2 1.8-0.2 4.4-0.1 2.5-0.1 6.8h-1.4q-0.3-2.3-1.2-4.6-0.8-2.3-2.6-3.8-1.6-1.5-4.4-1.5-1.8 0-3.1 1.1-1.2 1-1.2 3 0 1.9 1.1 3.4 1.2 1.4 2.9 2.8 1.9 1.2 3.9 2.7 2.1 1.6 3.8 3.2 1.8 1.5 2.8 3.4 1 1.9 1 4.4 0 2.9-1.7 5.1-1.6 2.1-4.4 3.2-2.7 1.2-6 1.2-1.9 0-3.5-0.3-1.4-0.5-2.5-1-0.9-0.5-1.6-0.8-0.7-0.4-1.4-0.6-0.6-0.2-1.1 0.5-0.5 0.6-0.7 1.7h-1.4q0.2-2 0.2-4.9 0.1-3 0.1-7.9h1.3q0.5 3.5 1.5 6.2 1 2.6 2.7 4.2 1.8 1.4 4.5 1.4 1.1 0 2.1-0.4 1-0.5 1.7-1.5 0.7-1 0.7-2.6 0-2.8-1.9-4.7-1.8-1.9-4.6-4-2.1-1.7-3.9-3.3-1.8-1.6-3-3.6-1.1-1.9-1.1-4.5 0-2.9 1.5-4.8 1.6-2 4.1-3 2.5-1 5.4-1zm50.9-11.4q2.5 0 4 0.3 1.6 0.4 2.7 1 1 0.4 1.8 1.2 0.9 0.7 1.5 1.7 0.6 1 0.6 2.3 0 1.9-1.6 3.1-1.4 1.1-3.4 1.1-1.9 0-3.3-0.9-1.3-1-1.3-3 0-1.7 1.1-2.9 1.2-1.4 3-1.7-0.5-0.5-1.7-0.8-1.1-0.4-2.5-0.4-3.4 0-5.7 2.2-2.3 2-2.3 6.2 0 1.5 0.5 3.2 0.5 1.6 2 3.4 1.1-0.3 1.9-0.4 1-0.1 1.7-0.1 1.1 0 1.7 0.5 0.6 0.4 0.6 1.2 0 0.6-0.5 0.9-0.5 0.4-1.3 0.4-1.1 0-2.2-0.6-1.2-0.6-1.9-1-3 1.5-4.9 3.9-1.8 2.4-1.8 6.4 0 4.2 2.2 7 2.3 2.7 6.5 4.1 4.2 1.3 9.9 1.3 3.2 0 6.3-0.7 3.2-0.7 5.7-2.1 2.6-1.4 4.1-3.4 1.5-2.1 1.5-4.9 0-1-0.3-2.6-0.3-1.5-1.4-3.1-1.1-1.6-3.5-2.6l0.4-0.6q3.5 1.1 5.3 4.1 1.8 3 1.8 6.9 0 4.5-2.8 8.1-2.7 3.5-7.7 5.5-5 2.1-11.6 2.1-5.3 0-9.7-1.1-4.3-1.1-7.4-3.1-3.1-2.1-4.8-5.1-1.7-2.9-1.7-6.6 0-3.6 1.5-6.1 1.5-2.6 3.6-4.2 2.3-1.6 4.4-2.5 2.2-0.9 3.5-1.3-2-0.8-3.6-1.9-1.7-1.1-2.7-2.6-0.9-1.6-0.9-3.5 0-2.1 1.1-3.6 1-1.6 2.9-2.6 1.8-1.1 4-1.6 2.3-0.5 4.7-0.5zm25.2-0.8q4.5 0 7.3 2.4 2.9 2.3 2.9 6.6 0 3.3-1.7 5.6-1.5 2.2-4.4 3.6-2.9 1.4-6.9 2.2-1 0.4-2.3 0.8-1.3 0.3-2.7 0.7-1.5 0.4-2.8 0.8-1.3 0.4-2.3 0.7-4.9 1.1-7.6 2.4-2.7 1.4-2.7 3.8 0 1.5 1 2.8 1.1 1.1 2.7 1.7 1.6 0.6 3.2 0.6 0.4 0 0.9 0 0.6-0.1 1-0.3 0.5-0.1 0.7-0.3-1.6-0.5-2.5-1.6-0.7-1.1-0.7-2.6 0-2 1.4-3.1 1.5-1.1 3.7-1.1 2.3 0 3.6 1.2 1.3 1.2 1.3 3.1 0 2-1.3 3.3-1.1 1.3-3.2 2-2 0.5-4.6 0.5-2.5 0-4.7-0.9-2.2-0.9-3.5-2.7-1.3-1.8-1.3-4.6 0-3.3 1.7-5.6 1.8-2.3 5-3.8 3.2-1.5 7.6-2.3 1.4-0.4 3-0.7 1.6-0.5 3.3-0.9 1.8-0.5 3.3-1 4.6-1.1 7.1-2.6 2.5-1.4 2.5-3.7 0-1.8-1.1-3-1-1.4-2.6-2.1-1.7-0.8-3.5-0.8-0.6 0-1.1 0.2-0.4 0-0.7 0.2 1.5 0.6 2.3 1.7 0.8 1.1 0.8 2.3 0 2-1.5 3.1-1.4 1-3.6 1-2.2 0-3.6-1.1-1.4-1.1-1.4-3.1 0-1.7 0.9-2.9 1.1-1.3 2.8-1.9 1.9-0.6 4.3-0.6zm52.1 0q4.2 0 6.9 1.3 2.8 1.2 4.9 2.9 1.3 0.9 1.9 0.2 0.7-0.8 1-3.5h1.4q-0.1 2.5-0.2 6.1 0 3.5 0 9.4h-1.5q-0.3-3-0.9-5-0.4-2.2-1.4-3.7-0.9-1.6-2.5-2.9-1.6-1.6-3.8-2.4-2-0.8-4.3-0.8-3.5 0-5.9 1.9-2.4 1.8-4 4.9-1.5 3.2-2.2 7.1-0.7 3.9-0.7 8.2 0 4.3 0.7 8.2 0.8 3.9 2.4 7.1 1.6 3 4 4.8 2.5 1.7 5.9 1.7 2.1 0 4.3-0.7 2.2-0.8 3.7-2.4 2.5-1.9 3.3-4.7 0.9-2.9 1.4-7.6h1.5q0 6.1 0 9.8 0.1 3.8 0.2 6.3h-1.4q-0.3-2.8-0.9-3.5-0.6-0.7-2 0.2-2.4 1.7-5.1 3-2.6 1.2-6.8 1.2-6.7 0-11.9-2.8-5-2.7-7.9-7.9-2.8-5.2-2.8-12.5 0-7.1 2.9-12.5 3-5.4 8-8.4 5.2-3 11.8-3zm37.7 12.2q4.6 0 8.1 1.7 3.5 1.8 5.5 5.6 2.1 3.8 2.1 10.2 0 6.3-2.1 10.2-2 3.8-5.5 5.5-3.5 1.7-8.1 1.7-4.6 0-8.2-1.7-3.5-1.7-5.5-5.5-2-3.9-2-10.2 0-6.4 2-10.2 2-3.8 5.5-5.6 3.6-1.7 8.2-1.7zm0 1.3q-2.6 0-4.3 3.8-1.7 3.8-1.7 12.4 0 8.6 1.7 12.3 1.7 3.8 4.3 3.8 2.6 0 4.2-3.8 1.8-3.7 1.8-12.3 0-8.6-1.8-12.4-1.6-3.8-4.2-3.8zm38.4-14.8q3.6 0 6.3 1.6 2.8 1.6 3.7 4.7l-1.1 0.6q-0.7-2.4-2.8-3.9-2.1-1.6-5-1.6-3.3 0-4.8 2.1-1.6 1.9-1.6 6.3v4.7h8.5v1.2h-8.5v25.8q0 2.7 0.9 3.7 1 1 3.2 1v1.3q-1.3-0.1-3.6-0.1-2.3-0.2-4.8-0.2-2.7 0-5.4 0.2-2.6 0-4 0.1v-1.3q2.5 0 3.5-1 1-1 1-3.7v-25.8h-4.7v-1.2h4.7q0-3.5 1-6.2 1.1-2.9 3.1-4.7 1.8-1.6 4.4-2.6 2.7-1 6-1zm19.1-2.5q2.2 0 3.9 0.5 1.7 0.6 2.9 1.6 0.9 0.7 1.5 1.9 0.7 1.3 0.7 2.8 0 1.8-1.2 3.2-1.3 1.3-3.3 1.3-2.1 0-3.5-1.2-1.4-1.2-1.4-3.4 0-1.6 0.9-2.8 1-1.4 2.9-1.9-0.2-0.4-0.8-0.6-0.6-0.3-1.5-0.3-1.3 0-2.2 0.5-0.8 0.4-1.3 1.2-0.7 0.9-1 2.8-0.2 1.8-0.2 5.5v5.9h6.9v1.2h-6.9v25.2q0 3.1 1.6 4.2 1.6 1.1 4.4 1.1v1.3q-1.6-0.1-4.7-0.1-2.9-0.2-6.3-0.2-2.4 0-4.8 0.2-2.3 0-3.5 0.1v-1.3q2.2 0 3.2-1 0.9-1 0.9-3.7v-25.8h-4.4v-1.2h4.4q0-3.8 0.3-6.3 0.5-2.6 1.3-4.3 0.9-1.8 2.4-3.2 1.4-1.4 3.7-2.3 2.4-0.9 5.1-0.9zm20.4 16q5.7 0 8.8 3.3 3.3 3.4 3.3 10.9h-21.1l-0.1-1.2h13.1q0.1-3.1-0.4-5.8-0.4-2.6-1.4-4.2-0.9-1.6-2.5-1.6-2.3 0-3.9 2.8-1.5 2.8-1.9 9.3l0.3 0.4q-0.1 0.8-0.2 1.7 0 0.8 0 1.6 0 4.5 1.2 7.3 1.3 2.7 3.2 3.9 2 1.2 4 1.2 1.3 0 2.7-0.3 1.5-0.5 2.9-1.6 1.5-1.1 2.8-3.2l1.1 0.4q-0.7 2.4-2.4 4.7-1.6 2.3-4.2 3.8-2.6 1.5-6.2 1.5-4.3 0-7.6-1.8-3.3-1.9-5.3-5.7-1.8-3.8-1.8-9.6 0-6 2-9.8 2-4.1 5.5-6 3.6-2 8.1-2zm33 0q5.7 0 8.8 3.3 3.3 3.4 3.3 10.9h-21.1l-0.1-1.2h13.1q0.1-3.1-0.4-5.8-0.4-2.6-1.4-4.2-0.9-1.6-2.5-1.6-2.3 0-3.9 2.8-1.5 2.8-1.9 9.3l0.3 0.4q-0.1 0.8-0.2 1.7 0 0.8 0 1.6 0 4.5 1.2 7.3 1.3 2.7 3.2 3.9 2 1.2 4 1.2 1.3 0 2.7-0.3 1.5-0.5 2.9-1.6 1.5-1.1 2.8-3.2l1.1 0.4q-0.7 2.4-2.4 4.7-1.6 2.3-4.2 3.8-2.6 1.5-6.2 1.5-4.3 0-7.6-1.8-3.3-1.9-5.3-5.7-1.8-3.8-1.8-9.6 0-6 2-9.8 2-4.1 5.5-6 3.6-2 8.1-2z"/>
	<path id="Shape 1" fill-rule="evenodd" class="s1" d="m470.24 29.91l-23.48 10.6 2.56-25.63z"/>
	<path id="Shape 4" fill-rule="evenodd" class="s1" d="m520.65 28.71l19.68-15.67 3.73 24.88z"/>
	<path id="Shape 3" fill-rule="evenodd" class="s2" d="m496 76c-33.18 0-60-11.17-60-25 0-13.83 26.82-25 60-25 33.18 0 60 11.17 60 25 0 13.83-26.82 25-60 25z"/>
</svg>